# Created by FreeCAD <http://www.freecadweb.org>
v 5.000000 0.000000 0.000000
v 4.967409 0.569957 0.000000
v 5.000000 0.000000 5.000000
v 4.967409 0.569957 5.000000
v 4.870059 1.132484 0.000000
v 4.870059 1.132484 5.000000
v 4.709222 1.680247 5.000000
v 4.709222 1.680247 0.000000
v 4.486992 2.206105 0.000000
v 4.486992 2.206105 5.000000
v 4.206268 2.703204 0.000000
v 4.206268 2.703204 5.000000
v 3.870708 3.165062 5.000000
v 3.870708 3.165062 0.000000
v 3.484688 3.585659 0.000000
v 3.484688 3.585659 5.000000
v 3.053239 3.959511 0.000000
v 3.053239 3.959511 5.000000
v 2.581987 4.281745 0.000000
v 2.581987 4.281745 5.000000
v 2.077075 4.548160 0.000000
v 2.077075 4.548160 5.000000
v 1.545085 4.755282 0.000000
v 1.545085 4.755282 5.000000
v 0.992952 4.900413 0.000000
v 0.992952 4.900413 5.000000
v 0.427875 4.981658 0.000000
v 0.427875 4.981658 5.000000
v -0.142780 4.997961 0.000000
v -0.142780 4.997961 5.000000
v -0.711574 4.949107 0.000000
v -0.711574 4.949107 5.000000
v -1.271092 4.835734 5.000000
v -1.271092 4.835734 0.000000
v -1.814039 4.659320 0.000000
v -1.814039 4.659320 5.000000
v -2.333337 4.422164 0.000000
v -2.333337 4.422164 5.000000
v -2.822216 4.127359 5.000000
v -2.822216 4.127359 0.000000
v -3.274304 3.778748 0.000000
v -3.274304 3.778748 5.000000
v -3.683706 3.380874 0.000000
v -3.683706 3.380874 5.000000
v -4.045085 2.938926 5.000000
v -4.045085 2.938926 0.000000
v -4.353730 2.458665 0.000000
v -4.353730 2.458665 5.000000
v -4.605618 1.946351 0.000000
v -4.605618 1.946351 5.000000
v -4.797465 1.408663 0.000000
v -4.797465 1.408663 5.000000
v -4.926769 0.852611 5.000000
v -4.926769 0.852611 0.000000
v -4.991846 0.285444 0.000000
v -4.991846 0.285444 5.000000
v -4.991846 -0.285444 0.000000
v -4.991846 -0.285444 5.000000
v -4.926769 -0.852611 0.000000
v -4.926769 -0.852611 5.000000
v -4.797465 -1.408663 0.000000
v -4.797465 -1.408663 5.000000
v -4.605618 -1.946351 5.000000
v -4.605618 -1.946351 0.000000
v -4.353730 -2.458665 0.000000
v -4.353730 -2.458665 5.000000
v -4.045085 -2.938926 0.000000
v -4.045085 -2.938926 5.000000
v -3.683706 -3.380874 5.000000
v -3.683706 -3.380874 0.000000
v -3.274304 -3.778748 5.000000
v -3.274304 -3.778748 0.000000
v -2.822216 -4.127359 0.000000
v -2.822216 -4.127359 5.000000
v -2.333337 -4.422164 0.000000
v -2.333337 -4.422164 5.000000
v -1.814039 -4.659320 5.000000
v -1.814039 -4.659320 0.000000
v -1.271092 -4.835734 0.000000
v -1.271092 -4.835734 5.000000
v -0.711574 -4.949107 5.000000
v -0.711574 -4.949107 0.000000
v -0.142780 -4.997961 5.000000
v -0.142780 -4.997961 0.000000
v 0.427875 -4.981658 0.000000
v 0.427875 -4.981658 5.000000
v 0.992952 -4.900413 5.000000
v 0.992952 -4.900413 0.000000
v 1.545085 -4.755282 5.000000
v 1.545085 -4.755282 0.000000
v 2.077075 -4.548160 0.000000
v 2.077075 -4.548160 5.000000
v 2.581987 -4.281745 0.000000
v 2.581987 -4.281745 5.000000
v 3.053239 -3.959511 0.000000
v 3.053239 -3.959511 5.000000
v 3.484688 -3.585659 0.000000
v 3.484688 -3.585659 5.000000
v 3.870708 -3.165062 0.000000
v 3.870708 -3.165062 5.000000
v 4.206268 -2.703204 5.000000
v 4.206268 -2.703204 0.000000
v 4.486992 -2.206105 0.000000
v 4.486992 -2.206105 5.000000
v 4.709222 -1.680247 0.000000
v 4.709222 -1.680247 5.000000
v 4.870059 -1.132484 0.000000
v 4.870059 -1.132484 5.000000
v 4.967409 -0.569957 0.000000
v 4.967409 -0.569957 5.000000
vn 0.998369 0.057089 -0.000000
vn 0.998369 0.057089 0.000000
vn 0.985354 0.170522 0.000000
vn 0.959493 0.281732 0.000000
vn 0.985354 0.170522 -0.000000
vn 0.959493 0.281732 0.000000
vn 0.921124 0.389270 0.000000
vn 0.921124 0.389270 -0.000000
vn 0.870746 0.491733 0.000000
vn 0.809017 0.587786 0.000000
vn 0.870746 0.491733 -0.000000
vn 0.809017 0.587786 0.000000
vn 0.736741 0.676175 0.000000
vn 0.736741 0.676175 -0.000000
vn 0.654861 0.755750 0.000000
vn 0.654861 0.755750 -0.000000
vn 0.564443 0.825472 0.000000
vn 0.564443 0.825472 -0.000000
vn 0.466668 0.884433 0.000000
vn 0.466668 0.884433 -0.000000
vn 0.362807 0.931864 0.000000
vn 0.362807 0.931864 -0.000000
vn 0.254219 0.967147 0.000000
vn 0.254219 0.967147 -0.000000
vn 0.142314 0.989822 0.000000
vn 0.142314 0.989822 -0.000000
vn 0.028557 0.999592 0.000000
vn 0.028557 0.999592 -0.000000
vn -0.085575 0.996332 0.000000
vn -0.198590 0.980083 0.000000
vn -0.085575 0.996332 0.000000
vn -0.198590 0.980083 0.000000
vn -0.309017 0.951057 0.000000
vn -0.309017 0.951057 0.000000
vn -0.415416 0.909632 0.000000
vn -0.516397 0.856349 0.000000
vn -0.415416 0.909632 0.000000
vn -0.516397 0.856349 0.000000
vn -0.610648 0.791902 0.000000
vn -0.610648 0.791902 0.000000
vn -0.696937 0.717132 0.000000
vn -0.774142 0.633012 0.000000
vn -0.696937 0.717132 0.000000
vn -0.774142 0.633012 0.000000
vn -0.841254 0.540641 0.000000
vn -0.841254 0.540641 0.000000
vn -0.897398 0.441222 0.000000
vn -0.897398 0.441222 0.000000
vn -0.941845 0.336049 0.000000
vn -0.941845 0.336049 0.000000
vn -0.974012 0.226497 0.000000
vn -0.974012 0.226497 0.000000
vn -0.993482 0.113991 0.000000
vn -0.993482 0.113991 0.000000
vn -1.000000 0.000000 0.000000
vn -1.000000 -0.000000 0.000000
vn -0.993482 -0.113991 0.000000
vn -0.993482 -0.113991 0.000000
vn -0.974012 -0.226497 0.000000
vn -0.941845 -0.336049 -0.000000
vn -0.974012 -0.226497 0.000000
vn -0.941845 -0.336049 0.000000
vn -0.897398 -0.441222 0.000000
vn -0.897398 -0.441222 0.000000
vn -0.841254 -0.540641 0.000000
vn -0.774142 -0.633012 -0.000000
vn -0.841254 -0.540641 0.000000
vn -0.696937 -0.717132 -0.000000
vn -0.774142 -0.633012 0.000000
vn -0.696937 -0.717132 0.000000
vn -0.610648 -0.791902 0.000000
vn -0.610648 -0.791902 0.000000
vn -0.516397 -0.856349 0.000000
vn -0.415416 -0.909632 -0.000000
vn -0.516397 -0.856349 0.000000
vn -0.415416 -0.909632 0.000000
vn -0.309017 -0.951057 0.000000
vn -0.198590 -0.980083 -0.000000
vn -0.309017 -0.951057 0.000000
vn -0.085575 -0.996332 -0.000000
vn -0.198590 -0.980083 0.000000
vn -0.085575 -0.996332 0.000000
vn 0.028557 -0.999592 0.000000
vn 0.142314 -0.989822 0.000000
vn 0.028557 -0.999592 0.000000
vn 0.254219 -0.967147 0.000000
vn 0.142314 -0.989822 0.000000
vn 0.254219 -0.967147 0.000000
vn 0.362807 -0.931864 0.000000
vn 0.362807 -0.931864 0.000000
vn 0.466668 -0.884433 0.000000
vn 0.466668 -0.884433 0.000000
vn 0.564443 -0.825472 0.000000
vn 0.564443 -0.825472 0.000000
vn 0.654861 -0.755750 0.000000
vn 0.654861 -0.755750 0.000000
vn 0.736741 -0.676175 0.000000
vn 0.736741 -0.676175 0.000000
vn 0.809017 -0.587786 0.000000
vn 0.809017 -0.587786 0.000000
vn 0.870746 -0.491733 0.000000
vn 0.870746 -0.491733 0.000000
vn 0.921124 -0.389270 0.000000
vn 0.921124 -0.389270 0.000000
vn 0.959493 -0.281732 0.000000
vn 0.959493 -0.281732 0.000000
vn 0.985354 -0.170522 0.000000
vn 0.985354 -0.170522 0.000000
vn 0.998369 -0.057089 0.000000
vn 0.998369 -0.057089 0.000000
vn 0.000000 0.000000 -1.000000
vn 0.000000 0.000000 -1.000000
vn 0.000000 0.000000 -1.000000
vn 0.000000 0.000000 -1.000000
vn 0.000000 0.000000 -1.000000
vn 0.000000 0.000000 -1.000000
vn 0.000000 0.000000 -1.000000
vn 0.000000 0.000000 -1.000000
vn 0.000000 0.000000 -1.000000
vn 0.000000 0.000000 -1.000000
vn 0.000000 0.000000 -1.000000
vn 0.000000 0.000000 -1.000000
vn 0.000000 0.000000 -1.000000
vn 0.000000 -0.000000 -1.000000
vn 0.000000 -0.000000 -1.000000
vn 0.000000 0.000000 -1.000000
vn 0.000000 0.000000 -1.000000
vn 0.000000 -0.000000 -1.000000
vn 0.000000 -0.000000 -1.000000
vn 0.000000 -0.000000 -1.000000
vn 0.000000 0.000000 -1.000000
vn 0.000000 0.000000 -1.000000
vn 0.000000 0.000000 -1.000000
vn 0.000000 0.000000 -1.000000
vn 0.000000 0.000000 -1.000000
vn 0.000000 0.000000 -1.000000
vn 0.000000 -0.000000 -1.000000
vn 0.000000 0.000000 -1.000000
vn 0.000000 0.000000 -1.000000
vn 0.000000 0.000000 -1.000000
vn 0.000000 0.000000 -1.000000
vn 0.000000 0.000000 -1.000000
vn 0.000000 -0.000000 -1.000000
vn 0.000000 0.000000 -1.000000
vn 0.000000 -0.000000 -1.000000
vn 0.000000 -0.000000 -1.000000
vn 0.000000 -0.000000 -1.000000
vn 0.000000 0.000000 -1.000000
vn 0.000000 0.000000 -1.000000
vn -0.000000 -0.000000 -1.000000
vn 0.000000 0.000000 -1.000000
vn 0.000000 0.000000 -1.000000
vn 0.000000 0.000000 -1.000000
vn -0.000000 -0.000000 -1.000000
vn 0.000000 0.000000 -1.000000
vn -0.000000 -0.000000 -1.000000
vn 0.000000 -0.000000 -1.000000
vn -0.000000 -0.000000 -1.000000
vn 0.000000 0.000000 -1.000000
vn 0.000000 0.000000 -1.000000
vn 0.000000 0.000000 -1.000000
vn 0.000000 0.000000 -1.000000
vn 0.000000 -0.000000 -1.000000
vn 0.000000 0.000000 1.000000
vn 0.000000 0.000000 1.000000
vn 0.000000 0.000000 1.000000
vn 0.000000 0.000000 1.000000
vn 0.000000 0.000000 1.000000
vn 0.000000 0.000000 1.000000
vn 0.000000 0.000000 1.000000
vn 0.000000 0.000000 1.000000
vn 0.000000 0.000000 1.000000
vn 0.000000 0.000000 1.000000
vn 0.000000 0.000000 1.000000
vn 0.000000 0.000000 1.000000
vn 0.000000 0.000000 1.000000
vn 0.000000 0.000000 1.000000
vn 0.000000 0.000000 1.000000
vn 0.000000 0.000000 1.000000
vn 0.000000 0.000000 1.000000
vn 0.000000 0.000000 1.000000
vn 0.000000 0.000000 1.000000
vn 0.000000 0.000000 1.000000
vn 0.000000 0.000000 1.000000
vn 0.000000 0.000000 1.000000
vn 0.000000 0.000000 1.000000
vn 0.000000 0.000000 1.000000
vn 0.000000 0.000000 1.000000
vn 0.000000 0.000000 1.000000
vn 0.000000 0.000000 1.000000
vn 0.000000 0.000000 1.000000
vn 0.000000 0.000000 1.000000
vn 0.000000 0.000000 1.000000
vn 0.000000 0.000000 1.000000
vn 0.000000 0.000000 1.000000
vn 0.000000 0.000000 1.000000
vn 0.000000 0.000000 1.000000
vn 0.000000 0.000000 1.000000
vn 0.000000 0.000000 1.000000
vn 0.000000 0.000000 1.000000
vn 0.000000 0.000000 1.000000
vn 0.000000 0.000000 1.000000
vn 0.000000 0.000000 1.000000
vn 0.000000 0.000000 1.000000
vn 0.000000 0.000000 1.000000
vn 0.000000 0.000000 1.000000
vn 0.000000 0.000000 1.000000
vn 0.000000 0.000000 1.000000
vn 0.000000 0.000000 1.000000
vn 0.000000 0.000000 1.000000
vn 0.000000 0.000000 1.000000
vn 0.000000 0.000000 1.000000
vn 0.000000 0.000000 1.000000
vn 0.000000 0.000000 1.000000
vn 0.000000 0.000000 1.000000
vn 0.000000 0.000000 1.000000
f 1//1 2//1 3//1
f 3//2 2//2 4//2
f 4//3 5//3 6//3
f 6//4 5//4 7//4
f 2//5 5//5 4//5
f 5//6 8//6 7//6
f 7//7 9//7 10//7
f 8//8 9//8 7//8
f 10//9 11//9 12//9
f 12//10 11//10 13//10
f 9//11 11//11 10//11
f 11//12 14//12 13//12
f 13//13 15//13 16//13
f 14//14 15//14 13//14
f 16//15 17//15 18//15
f 15//16 17//16 16//16
f 18//17 19//17 20//17
f 17//18 19//18 18//18
f 20//19 21//19 22//19
f 19//20 21//20 20//20
f 22//21 23//21 24//21
f 21//22 23//22 22//22
f 24//23 25//23 26//23
f 23//24 25//24 24//24
f 26//25 27//25 28//25
f 25//26 27//26 26//26
f 28//27 29//27 30//27
f 27//28 29//28 28//28
f 30//29 31//29 32//29
f 32//30 31//30 33//30
f 29//31 31//31 30//31
f 31//32 34//32 33//32
f 33//33 35//33 36//33
f 34//34 35//34 33//34
f 36//35 37//35 38//35
f 38//36 37//36 39//36
f 35//37 37//37 36//37
f 37//38 40//38 39//38
f 39//39 41//39 42//39
f 40//40 41//40 39//40
f 42//41 43//41 44//41
f 44//42 43//42 45//42
f 41//43 43//43 42//43
f 43//44 46//44 45//44
f 46//45 47//45 45//45
f 45//46 47//46 48//46
f 47//47 49//47 48//47
f 48//48 49//48 50//48
f 49//49 51//49 50//49
f 50//50 51//50 52//50
f 52//51 51//51 53//51
f 51//52 54//52 53//52
f 54//53 55//53 53//53
f 53//54 55//54 56//54
f 55//55 57//55 56//55
f 56//56 57//56 58//56
f 58//57 59//57 60//57
f 57//58 59//58 58//58
f 60//59 61//59 62//59
f 62//60 61//60 63//60
f 59//61 61//61 60//61
f 61//62 64//62 63//62
f 63//63 65//63 66//63
f 64//64 65//64 63//64
f 66//65 67//65 68//65
f 68//66 67//66 69//66
f 65//67 67//67 66//67
f 69//68 70//68 71//68
f 67//69 70//69 69//69
f 70//70 72//70 71//70
f 71//71 73//71 74//71
f 72//72 73//72 71//72
f 74//73 75//73 76//73
f 76//74 75//74 77//74
f 73//75 75//75 74//75
f 75//76 78//76 77//76
f 77//77 79//77 80//77
f 80//78 79//78 81//78
f 78//79 79//79 77//79
f 81//80 82//80 83//80
f 79//81 82//81 81//81
f 82//82 84//82 83//82
f 83//83 85//83 86//83
f 86//84 85//84 87//84
f 84//85 85//85 83//85
f 87//86 88//86 89//86
f 85//87 88//87 87//87
f 88//88 90//88 89//88
f 89//89 91//89 92//89
f 90//90 91//90 89//90
f 92//91 93//91 94//91
f 91//92 93//92 92//92
f 93//93 95//93 94//93
f 94//94 95//94 96//94
f 95//95 97//95 96//95
f 96//96 97//96 98//96
f 97//97 99//97 98//97
f 98//98 99//98 100//98
f 100//99 99//99 101//99
f 99//100 102//100 101//100
f 102//101 103//101 101//101
f 101//102 103//102 104//102
f 103//103 105//103 104//103
f 104//104 105//104 106//104
f 105//105 107//105 106//105
f 106//106 107//106 108//106
f 107//107 109//107 108//107
f 108//108 109//108 110//108
f 109//109 1//109 110//109
f 110//110 1//110 3//110
f 67//111 65//111 70//111
f 72//112 78//112 73//112
f 73//113 78//113 75//113
f 70//114 79//114 72//114
f 72//115 79//115 78//115
f 59//116 57//116 61//116
f 61//117 57//117 64//117
f 79//118 84//118 82//118
f 64//119 55//119 65//119
f 65//120 55//120 70//120
f 57//121 55//121 64//121
f 84//122 88//122 85//122
f 79//123 88//123 84//123
f 54//124 51//124 55//124
f 51//125 49//125 55//125
f 88//126 91//126 90//126
f 88//127 93//127 91//127
f 49//128 43//128 55//128
f 46//129 43//129 47//129
f 47//130 43//130 49//130
f 55//131 43//131 70//131
f 88//132 97//132 93//132
f 93//133 97//133 95//133
f 43//134 41//134 70//134
f 70//135 41//135 79//135
f 79//136 41//136 88//136
f 40//137 37//137 41//137
f 97//138 107//138 99//138
f 99//139 107//139 102//139
f 102//140 107//140 103//140
f 103//141 107//141 105//141
f 88//142 107//142 97//142
f 34//143 31//143 35//143
f 41//144 29//144 88//144
f 35//145 29//145 37//145
f 37//146 29//146 41//146
f 31//147 29//147 35//147
f 107//148 1//148 109//148
f 107//149 2//149 1//149
f 27//150 25//150 29//150
f 88//151 5//151 107//151
f 107//152 5//152 2//152
f 29//153 23//153 88//153
f 25//154 23//154 29//154
f 88//155 8//155 5//155
f 21//156 19//156 23//156
f 23//157 17//157 88//157
f 19//158 17//158 23//158
f 9//159 14//159 11//159
f 8//160 15//160 9//160
f 88//161 15//161 8//161
f 9//162 15//162 14//162
f 17//163 15//163 88//163
f 66//164 68//164 69//164
f 77//165 71//165 74//165
f 77//166 74//166 76//166
f 80//167 69//167 71//167
f 80//168 71//168 77//168
f 58//169 60//169 62//169
f 58//170 62//170 63//170
f 83//171 80//171 81//171
f 56//172 63//172 66//172
f 56//173 66//173 69//173
f 56//174 58//174 63//174
f 87//175 83//175 86//175
f 87//176 80//176 83//176
f 52//177 53//177 56//177
f 50//178 52//178 56//178
f 92//179 87//179 89//179
f 94//180 87//180 92//180
f 44//181 50//181 56//181
f 44//182 45//182 48//182
f 44//183 48//183 50//183
f 44//184 56//184 69//184
f 98//185 87//185 94//185
f 98//186 94//186 96//186
f 42//187 44//187 69//187
f 42//188 69//188 80//188
f 42//189 80//189 87//189
f 38//190 39//190 42//190
f 108//191 98//191 100//191
f 108//192 100//192 101//192
f 108//193 101//193 104//193
f 108//194 104//194 106//194
f 108//195 87//195 98//195
f 32//196 33//196 36//196
f 30//197 42//197 87//197
f 30//198 36//198 38//198
f 30//199 38//199 42//199
f 30//200 32//200 36//200
f 3//201 108//201 110//201
f 4//202 108//202 3//202
f 26//203 28//203 30//203
f 6//204 87//204 108//204
f 6//205 108//205 4//205
f 24//206 30//206 87//206
f 24//207 26//207 30//207
f 7//208 87//208 6//208
f 20//209 22//209 24//209
f 18//210 24//210 87//210
f 18//211 20//211 24//211
f 13//212 10//212 12//212
f 16//213 7//213 10//213
f 16//214 87//214 7//214
f 16//215 10//215 13//215
f 16//216 18//216 87//216
