# Created by FreeCAD <http://www.freecadweb.org>
v 29.000000 0.000000 0.000000
v 28.846296 2.981809 0.000000
v 29.000000 0.000000 1.000000
v 28.846296 2.981809 1.000000
v 28.386814 5.932010 0.000000
v 28.386814 5.932010 1.000000
v 27.626427 8.819330 0.000000
v 27.626427 8.819330 1.000000
v 26.573191 11.613163 0.000000
v 26.573191 11.613163 1.000000
v 25.238272 14.283894 0.000000
v 25.238272 14.283894 1.000000
v 23.635822 16.803211 0.000000
v 23.635822 16.803211 1.000000
v 21.782825 19.144411 0.000000
v 21.782825 19.144411 1.000000
v 19.698927 21.282675 0.000000
v 19.698927 21.282675 1.000000
v 17.406214 23.195337 0.000000
v 17.406214 23.195337 1.000000
v 14.928991 24.862123 0.000000
v 14.928991 24.862123 1.000000
v 12.293517 26.265366 0.000000
v 12.293517 26.265366 1.000000
v 9.527729 27.390188 1.000000
v 9.527729 27.390188 0.000000
v 6.660944 28.224667 0.000000
v 6.660944 28.224667 1.000000
v 3.723552 28.759958 0.000000
v 3.723552 28.759958 1.000000
v 0.746689 28.990385 0.000000
v 0.746689 28.990385 1.000000
v -2.238088 28.913507 0.000000
v -2.238088 28.913507 1.000000
v -5.199142 28.530140 0.000000
v -5.199142 28.530140 1.000000
v -8.105083 27.844347 1.000000
v -8.105083 27.844347 0.000000
v -10.925109 26.863396 0.000000
v -10.925109 26.863396 1.000000
v -13.629326 25.597685 1.000000
v -13.629326 25.597685 0.000000
v -16.189068 24.060633 0.000000
v -16.189068 24.060633 1.000000
v -18.577202 22.268534 0.000000
v -18.577202 22.268534 1.000000
v -20.768414 20.240381 0.000000
v -20.768414 20.240381 1.000000
v -22.739475 17.997675 0.000000
v -22.739475 17.997675 1.000000
v -24.469492 15.564190 1.000000
v -24.469492 15.564190 0.000000
v -25.940125 12.965720 0.000000
v -25.940125 12.965720 1.000000
v -27.135788 10.229811 0.000000
v -27.135788 10.229811 1.000000
v -28.043804 7.385462 0.000000
v -28.043804 7.385462 1.000000
v -28.654549 4.462827 0.000000
v -28.654549 4.462827 1.000000
v -28.961548 1.492884 1.000000
v -28.961548 1.492884 0.000000
v -28.961548 -1.492884 0.000000
v -28.961548 -1.492884 1.000000
v -28.654549 -4.462827 0.000000
v -28.654549 -4.462827 1.000000
v -28.043804 -7.385462 0.000000
v -28.043804 -7.385462 1.000000
v -27.135788 -10.229811 0.000000
v -27.135788 -10.229811 1.000000
v -25.940125 -12.965720 0.000000
v -25.940125 -12.965720 1.000000
v -24.469492 -15.564190 0.000000
v -24.469492 -15.564190 1.000000
v -22.739475 -17.997675 0.000000
v -22.739475 -17.997675 1.000000
v -20.768414 -20.240381 0.000000
v -20.768414 -20.240381 1.000000
v -18.577202 -22.268534 0.000000
v -18.577202 -22.268534 1.000000
v -16.189068 -24.060633 0.000000
v -16.189068 -24.060633 1.000000
v -13.629326 -25.597685 0.000000
v -13.629326 -25.597685 1.000000
v -10.925109 -26.863396 0.000000
v -10.925109 -26.863396 1.000000
v -8.105083 -27.844347 0.000000
v -8.105083 -27.844347 1.000000
v -5.199142 -28.530140 0.000000
v -5.199142 -28.530140 1.000000
v -2.238088 -28.913507 1.000000
v -2.238088 -28.913507 0.000000
v 0.746689 -28.990385 0.000000
v 0.746689 -28.990385 1.000000
v 3.723552 -28.759958 0.000000
v 3.723552 -28.759958 1.000000
v 6.660944 -28.224667 0.000000
v 6.660944 -28.224667 1.000000
v 9.527729 -27.390188 0.000000
v 9.527729 -27.390188 1.000000
v 12.293517 -26.265366 1.000000
v 12.293517 -26.265366 0.000000
v 14.928991 -24.862123 1.000000
v 14.928991 -24.862123 0.000000
v 17.406214 -23.195337 0.000000
v 17.406214 -23.195337 1.000000
v 19.698927 -21.282675 0.000000
v 19.698927 -21.282675 1.000000
v 21.782825 -19.144411 1.000000
v 21.782825 -19.144411 0.000000
v 23.635822 -16.803211 0.000000
v 23.635822 -16.803211 1.000000
v 25.238272 -14.283894 0.000000
v 25.238272 -14.283894 1.000000
v 26.573191 -11.613163 0.000000
v 26.573191 -11.613163 1.000000
v 27.626427 -8.819330 0.000000
v 27.626427 -8.819330 1.000000
v 28.386814 -5.932010 0.000000
v 28.386814 -5.932010 1.000000
v 28.846296 -2.981809 0.000000
v 28.846296 -2.981809 1.000000
vn 0.998674 0.051479 -0.000000
vn 0.998674 0.051479 0.000000
vn 0.988088 0.153891 0.000000
vn 0.988088 0.153891 -0.000000
vn 0.967028 0.254671 0.000000
vn 0.967028 0.254671 -0.000000
vn 0.935717 0.352752 0.000000
vn 0.935717 0.352752 -0.000000
vn 0.894487 0.447094 0.000000
vn 0.894487 0.447094 -0.000000
vn 0.843776 0.536696 0.000000
vn 0.843776 0.536696 -0.000000
vn 0.784120 0.620610 0.000000
vn 0.784120 0.620610 -0.000000
vn 0.716152 0.697944 0.000000
vn 0.716152 0.697944 -0.000000
vn 0.640593 0.767880 0.000000
vn 0.640593 0.767880 -0.000000
vn 0.558244 0.829677 0.000000
vn 0.558244 0.829677 -0.000000
vn 0.469977 0.882679 0.000000
vn 0.376728 0.926324 0.000000
vn 0.469977 0.882679 -0.000000
vn 0.376728 0.926324 0.000000
vn 0.279485 0.960150 0.000000
vn 0.279485 0.960150 -0.000000
vn 0.179281 0.983798 0.000000
vn 0.179281 0.983798 -0.000000
vn 0.077175 0.997018 0.000000
vn 0.077175 0.997018 -0.000000
vn -0.025748 0.999668 0.000000
vn -0.025748 0.999668 0.000000
vn -0.128398 0.991723 0.000000
vn -0.229687 0.973264 0.000000
vn -0.128398 0.991723 0.000000
vn -0.229687 0.973264 0.000000
vn -0.328542 0.944489 0.000000
vn -0.328542 0.944489 0.000000
vn -0.423915 0.905702 0.000000
vn -0.423915 0.905702 0.000000
vn -0.514793 0.857315 0.000000
vn -0.514793 0.857315 0.000000
vn -0.600214 0.799839 0.000000
vn -0.600214 0.799839 0.000000
vn -0.679273 0.733885 0.000000
vn -0.679273 0.733885 0.000000
vn -0.751132 0.660152 0.000000
vn -0.751132 0.660152 0.000000
vn -0.815028 0.579421 0.000000
vn -0.815028 0.579421 0.000000
vn -0.870285 0.492548 0.000000
vn -0.870285 0.492548 0.000000
vn -0.916317 0.400454 0.000000
vn -0.916317 0.400454 0.000000
vn -0.952635 0.304115 0.000000
vn -0.952635 0.304115 0.000000
vn -0.978856 0.204552 0.000000
vn -0.994700 0.102821 0.000000
vn -0.978856 0.204552 0.000000
vn -0.994700 0.102821 0.000000
vn -1.000000 -0.000000 0.000000
vn -1.000000 0.000000 0.000000
vn -0.994700 -0.102821 0.000000
vn -0.994700 -0.102821 0.000000
vn -0.978856 -0.204552 0.000000
vn -0.978856 -0.204552 0.000000
vn -0.952635 -0.304115 0.000000
vn -0.952635 -0.304115 0.000000
vn -0.916317 -0.400454 0.000000
vn -0.916317 -0.400454 0.000000
vn -0.870285 -0.492548 0.000000
vn -0.870285 -0.492548 0.000000
vn -0.815028 -0.579421 0.000000
vn -0.815028 -0.579421 0.000000
vn -0.751132 -0.660152 0.000000
vn -0.751132 -0.660152 0.000000
vn -0.679273 -0.733885 0.000000
vn -0.679273 -0.733885 0.000000
vn -0.600214 -0.799839 0.000000
vn -0.600214 -0.799839 0.000000
vn -0.514793 -0.857315 0.000000
vn -0.514793 -0.857315 0.000000
vn -0.423915 -0.905702 0.000000
vn -0.423915 -0.905702 0.000000
vn -0.328542 -0.944489 0.000000
vn -0.328542 -0.944489 0.000000
vn -0.229687 -0.973264 0.000000
vn -0.229687 -0.973264 0.000000
vn -0.128398 -0.991723 -0.000000
vn -0.128398 -0.991723 0.000000
vn -0.025748 -0.999668 0.000000
vn -0.025748 -0.999668 0.000000
vn 0.077175 -0.997018 0.000000
vn 0.077175 -0.997018 0.000000
vn 0.179281 -0.983798 0.000000
vn 0.179281 -0.983798 0.000000
vn 0.279485 -0.960150 0.000000
vn 0.279485 -0.960150 0.000000
vn 0.376728 -0.926324 0.000000
vn 0.376728 -0.926324 0.000000
vn 0.469977 -0.882679 0.000000
vn 0.469977 -0.882679 0.000000
vn 0.558244 -0.829677 0.000000
vn 0.558244 -0.829677 0.000000
vn 0.640593 -0.767880 0.000000
vn 0.640593 -0.767880 0.000000
vn 0.716152 -0.697944 0.000000
vn 0.716152 -0.697944 0.000000
vn 0.784120 -0.620610 0.000000
vn 0.784120 -0.620610 0.000000
vn 0.843776 -0.536696 0.000000
vn 0.843776 -0.536696 0.000000
vn 0.894487 -0.447094 0.000000
vn 0.894487 -0.447094 0.000000
vn 0.935717 -0.352752 0.000000
vn 0.935717 -0.352752 0.000000
vn 0.967028 -0.254671 0.000000
vn 0.967028 -0.254671 0.000000
vn 0.988088 -0.153891 0.000000
vn 0.988088 -0.153891 0.000000
vn 0.998674 -0.051479 0.000000
vn 0.998674 -0.051479 0.000000
vn 0.000000 0.000000 -1.000000
vn 0.000000 0.000000 -1.000000
vn 0.000000 0.000000 -1.000000
vn 0.000000 0.000000 -1.000000
vn 0.000000 0.000000 -1.000000
vn 0.000000 0.000000 -1.000000
vn 0.000000 0.000000 -1.000000
vn 0.000000 0.000000 -1.000000
vn 0.000000 0.000000 -1.000000
vn 0.000000 0.000000 -1.000000
vn 0.000000 0.000000 -1.000000
vn 0.000000 0.000000 -1.000000
vn 0.000000 -0.000000 -1.000000
vn 0.000000 0.000000 -1.000000
vn 0.000000 0.000000 -1.000000
vn 0.000000 0.000000 -1.000000
vn 0.000000 0.000000 -1.000000
vn 0.000000 0.000000 -1.000000
vn 0.000000 -0.000000 -1.000000
vn 0.000000 -0.000000 -1.000000
vn 0.000000 -0.000000 -1.000000
vn 0.000000 -0.000000 -1.000000
vn 0.000000 -0.000000 -1.000000
vn 0.000000 -0.000000 -1.000000
vn 0.000000 0.000000 -1.000000
vn 0.000000 0.000000 -1.000000
vn 0.000000 0.000000 -1.000000
vn 0.000000 0.000000 -1.000000
vn 0.000000 0.000000 -1.000000
vn 0.000000 0.000000 -1.000000
vn 0.000000 -0.000000 -1.000000
vn 0.000000 -0.000000 -1.000000
vn 0.000000 0.000000 -1.000000
vn 0.000000 -0.000000 -1.000000
vn 0.000000 0.000000 -1.000000
vn 0.000000 -0.000000 -1.000000
vn 0.000000 0.000000 -1.000000
vn 0.000000 0.000000 -1.000000
vn 0.000000 0.000000 -1.000000
vn 0.000000 0.000000 -1.000000
vn 0.000000 0.000000 -1.000000
vn 0.000000 0.000000 -1.000000
vn 0.000000 0.000000 -1.000000
vn 0.000000 0.000000 -1.000000
vn 0.000000 -0.000000 -1.000000
vn 0.000000 0.000000 -1.000000
vn -0.000000 -0.000000 -1.000000
vn 0.000000 0.000000 -1.000000
vn -0.000000 -0.000000 -1.000000
vn 0.000000 0.000000 -1.000000
vn 0.000000 0.000000 -1.000000
vn 0.000000 0.000000 -1.000000
vn 0.000000 0.000000 -1.000000
vn 0.000000 0.000000 -1.000000
vn -0.000000 -0.000000 -1.000000
vn -0.000000 -0.000000 -1.000000
vn -0.000000 -0.000000 -1.000000
vn 0.000000 0.000000 -1.000000
vn 0.000000 0.000000 -1.000000
vn 0.000000 0.000000 1.000000
vn 0.000000 0.000000 1.000000
vn 0.000000 0.000000 1.000000
vn 0.000000 0.000000 1.000000
vn 0.000000 0.000000 1.000000
vn 0.000000 0.000000 1.000000
vn 0.000000 0.000000 1.000000
vn 0.000000 0.000000 1.000000
vn 0.000000 0.000000 1.000000
vn 0.000000 0.000000 1.000000
vn 0.000000 0.000000 1.000000
vn 0.000000 0.000000 1.000000
vn 0.000000 0.000000 1.000000
vn 0.000000 0.000000 1.000000
vn 0.000000 0.000000 1.000000
vn 0.000000 0.000000 1.000000
vn 0.000000 0.000000 1.000000
vn 0.000000 0.000000 1.000000
vn 0.000000 0.000000 1.000000
vn 0.000000 0.000000 1.000000
vn 0.000000 0.000000 1.000000
vn 0.000000 0.000000 1.000000
vn 0.000000 0.000000 1.000000
vn 0.000000 0.000000 1.000000
vn 0.000000 0.000000 1.000000
vn 0.000000 0.000000 1.000000
vn 0.000000 0.000000 1.000000
vn 0.000000 0.000000 1.000000
vn 0.000000 0.000000 1.000000
vn 0.000000 0.000000 1.000000
vn 0.000000 0.000000 1.000000
vn 0.000000 0.000000 1.000000
vn 0.000000 0.000000 1.000000
vn 0.000000 0.000000 1.000000
vn 0.000000 0.000000 1.000000
vn 0.000000 0.000000 1.000000
vn 0.000000 0.000000 1.000000
vn 0.000000 0.000000 1.000000
vn 0.000000 0.000000 1.000000
vn 0.000000 0.000000 1.000000
vn 0.000000 0.000000 1.000000
vn 0.000000 0.000000 1.000000
vn 0.000000 0.000000 1.000000
vn 0.000000 0.000000 1.000000
vn 0.000000 0.000000 1.000000
vn 0.000000 0.000000 1.000000
vn 0.000000 0.000000 1.000000
vn 0.000000 0.000000 1.000000
vn 0.000000 0.000000 1.000000
vn 0.000000 0.000000 1.000000
vn 0.000000 0.000000 1.000000
vn 0.000000 0.000000 1.000000
vn 0.000000 0.000000 1.000000
vn 0.000000 0.000000 1.000000
vn 0.000000 0.000000 1.000000
vn 0.000000 0.000000 1.000000
vn 0.000000 0.000000 1.000000
vn 0.000000 0.000000 1.000000
vn 0.000000 0.000000 1.000000
f 1//1 2//1 3//1
f 3//2 2//2 4//2
f 4//3 5//3 6//3
f 2//4 5//4 4//4
f 6//5 7//5 8//5
f 5//6 7//6 6//6
f 8//7 9//7 10//7
f 7//8 9//8 8//8
f 10//9 11//9 12//9
f 9//10 11//10 10//10
f 12//11 13//11 14//11
f 11//12 13//12 12//12
f 14//13 15//13 16//13
f 13//14 15//14 14//14
f 16//15 17//15 18//15
f 15//16 17//16 16//16
f 18//17 19//17 20//17
f 17//18 19//18 18//18
f 20//19 21//19 22//19
f 19//20 21//20 20//20
f 22//21 23//21 24//21
f 24//22 23//22 25//22
f 21//23 23//23 22//23
f 23//24 26//24 25//24
f 25//25 27//25 28//25
f 26//26 27//26 25//26
f 28//27 29//27 30//27
f 27//28 29//28 28//28
f 30//29 31//29 32//29
f 29//30 31//30 30//30
f 32//31 33//31 34//31
f 31//32 33//32 32//32
f 34//33 35//33 36//33
f 36//34 35//34 37//34
f 33//35 35//35 34//35
f 35//36 38//36 37//36
f 38//37 39//37 37//37
f 37//38 39//38 40//38
f 40//39 39//39 41//39
f 39//40 42//40 41//40
f 42//41 43//41 41//41
f 41//42 43//42 44//42
f 43//43 45//43 44//43
f 44//44 45//44 46//44
f 45//45 47//45 46//45
f 46//46 47//46 48//46
f 47//47 49//47 48//47
f 48//48 49//48 50//48
f 50//49 49//49 51//49
f 49//50 52//50 51//50
f 52//51 53//51 51//51
f 51//52 53//52 54//52
f 54//53 55//53 56//53
f 53//54 55//54 54//54
f 56//55 57//55 58//55
f 55//56 57//56 56//56
f 58//57 59//57 60//57
f 60//58 59//58 61//58
f 57//59 59//59 58//59
f 59//60 62//60 61//60
f 61//61 63//61 64//61
f 62//62 63//62 61//62
f 64//63 65//63 66//63
f 63//64 65//64 64//64
f 66//65 67//65 68//65
f 65//66 67//66 66//66
f 68//67 69//67 70//67
f 67//68 69//68 68//68
f 70//69 71//69 72//69
f 69//70 71//70 70//70
f 72//71 73//71 74//71
f 71//72 73//72 72//72
f 74//73 75//73 76//73
f 73//74 75//74 74//74
f 76//75 77//75 78//75
f 75//76 77//76 76//76
f 78//77 79//77 80//77
f 77//78 79//78 78//78
f 80//79 81//79 82//79
f 79//80 81//80 80//80
f 82//81 83//81 84//81
f 81//82 83//82 82//82
f 84//83 85//83 86//83
f 83//84 85//84 84//84
f 86//85 87//85 88//85
f 85//86 87//86 86//86
f 87//87 89//87 88//87
f 88//88 89//88 90//88
f 90//89 89//89 91//89
f 89//90 92//90 91//90
f 92//91 93//91 91//91
f 91//92 93//92 94//92
f 93//93 95//93 94//93
f 94//94 95//94 96//94
f 95//95 97//95 96//95
f 96//96 97//96 98//96
f 97//97 99//97 98//97
f 98//98 99//98 100//98
f 100//99 99//99 101//99
f 99//100 102//100 101//100
f 101//101 102//101 103//101
f 102//102 104//102 103//102
f 104//103 105//103 103//103
f 103//104 105//104 106//104
f 105//105 107//105 106//105
f 106//106 107//106 108//106
f 108//107 107//107 109//107
f 107//108 110//108 109//108
f 110//109 111//109 109//109
f 109//110 111//110 112//110
f 111//111 113//111 112//111
f 112//112 113//112 114//112
f 113//113 115//113 114//113
f 114//114 115//114 116//114
f 116//115 117//115 118//115
f 115//116 117//116 116//116
f 118//117 119//117 120//117
f 117//118 119//118 118//118
f 120//119 121//119 122//119
f 119//120 121//120 120//120
f 122//121 1//121 3//121
f 121//122 1//122 122//122
f 77//123 75//123 79//123
f 81//124 85//124 83//124
f 79//125 87//125 81//125
f 75//126 87//126 79//126
f 81//127 87//127 85//127
f 69//128 67//128 71//128
f 67//129 65//129 71//129
f 87//130 92//130 89//130
f 71//131 63//131 73//131
f 73//132 63//132 75//132
f 65//133 63//133 71//133
f 62//134 59//134 63//134
f 59//135 57//135 63//135
f 92//136 99//136 93//136
f 93//137 99//137 95//137
f 95//138 99//138 97//138
f 99//139 104//139 102//139
f 99//140 105//140 104//140
f 52//141 49//141 53//141
f 53//142 49//142 55//142
f 55//143 49//143 57//143
f 57//144 45//144 63//144
f 49//145 45//145 57//145
f 47//146 45//146 49//146
f 87//147 45//147 92//147
f 75//148 45//148 87//148
f 63//149 45//149 75//149
f 107//150 111//150 110//150
f 107//151 113//151 111//151
f 113//152 117//152 115//152
f 39//153 38//153 42//153
f 42//154 38//154 43//154
f 113//155 119//155 117//155
f 43//156 35//156 45//156
f 45//157 35//157 92//157
f 38//158 35//158 43//158
f 92//159 35//159 99//159
f 113//160 121//160 119//160
f 107//161 121//161 113//161
f 105//162 121//162 107//162
f 99//163 33//163 105//163
f 35//164 33//164 99//164
f 105//165 33//165 121//165
f 121//166 2//166 1//166
f 31//167 29//167 33//167
f 33//168 27//168 121//168
f 29//169 27//169 33//169
f 2//170 7//170 5//170
f 26//171 23//171 27//171
f 7//172 13//172 9//172
f 9//173 13//173 11//173
f 121//174 13//174 2//174
f 2//175 13//175 7//175
f 13//176 17//176 15//176
f 19//177 17//177 21//177
f 21//178 17//178 23//178
f 23//179 17//179 27//179
f 27//180 17//180 121//180
f 121//181 17//181 13//181
f 76//182 78//182 80//182
f 86//183 82//183 84//183
f 88//184 80//184 82//184
f 88//185 76//185 80//185
f 88//186 82//186 86//186
f 68//187 70//187 72//187
f 66//188 68//188 72//188
f 91//189 88//189 90//189
f 64//190 72//190 74//190
f 64//191 74//191 76//191
f 64//192 66//192 72//192
f 60//193 61//193 64//193
f 58//194 60//194 64//194
f 100//195 91//195 94//195
f 100//196 94//196 96//196
f 100//197 96//197 98//197
f 103//198 100//198 101//198
f 106//199 100//199 103//199
f 50//200 51//200 54//200
f 50//201 54//201 56//201
f 50//202 56//202 58//202
f 46//203 58//203 64//203
f 46//204 50//204 58//204
f 46//205 48//205 50//205
f 46//206 88//206 91//206
f 46//207 76//207 88//207
f 46//208 64//208 76//208
f 112//209 108//209 109//209
f 114//210 108//210 112//210
f 118//211 114//211 116//211
f 37//212 40//212 41//212
f 37//213 41//213 44//213
f 120//214 114//214 118//214
f 36//215 44//215 46//215
f 36//216 46//216 91//216
f 36//217 37//217 44//217
f 36//218 91//218 100//218
f 122//219 114//219 120//219
f 122//220 108//220 114//220
f 122//221 106//221 108//221
f 34//222 100//222 106//222
f 34//223 36//223 100//223
f 34//224 106//224 122//224
f 4//225 122//225 3//225
f 30//226 32//226 34//226
f 28//227 34//227 122//227
f 28//228 30//228 34//228
f 8//229 4//229 6//229
f 24//230 25//230 28//230
f 14//231 8//231 10//231
f 14//232 10//232 12//232
f 14//233 122//233 4//233
f 14//234 4//234 8//234
f 18//235 14//235 16//235
f 18//236 20//236 22//236
f 18//237 22//237 24//237
f 18//238 24//238 28//238
f 18//239 28//239 122//239
f 18//240 122//240 14//240
